<?xml version="1.0" encoding="utf-8"?>
<!-- Generator: Adobe Illustrator 27.9.0, SVG Export Plug-In . SVG Version: 6.00 Build 0)  -->
<svg version="1.1" id="Layer_1" xmlns="http://www.w3.org/2000/svg" xmlns:xlink="http://www.w3.org/1999/xlink" x="0px" y="0px"
	 viewBox="0 0 245.3 89.8" style="enable-background:new 0 0 245.3 89.8;" xml:space="preserve">
<style type="text/css">
	.st0{fill:#E6E7E8;}
	.st1{fill:#676767;}
</style>
<g>
	<g>
		<path class="st0" d="M241.6,13.5l-3.2-8.1l-12.2,8.1l-17.9,28.1L196,54.3l-2.8,8.6l6.7-0.7l6.9,2.5c1.4-7.5,5.2-21.7,16.5-35.2
			C229.6,21.8,236.4,16.7,241.6,13.5z"/>
		<path class="st1" d="M240.9,76.4c0.4-1.1,1-2.6,1.4-3.7c0.6-2,1-4,1.2-6.1c0.4-4.5-0.1-9-1.6-13.3c0,0,0-0.1-0.1-0.2
			c0.5-2.2,1-4.4,1.3-6.6c0.4-2.7,0.6-5.3,0.6-8c-0.9,2.5-2,4.8-3.3,7.1c-1.2,2.3-2.6,4.4-4.1,6.5l-0.6,0.8c0.1,0.3,0.6,1.5,0.7,1.8
			c1.2,3.2,1.7,6.6,1.5,10c0,0.7-0.1,1.6-0.2,2.3c-0.1,0.3-0.1,0.7-0.2,1c-0.2,1.2-0.6,2.5-1,3.7c-0.2,0.7-0.7,1.9-1.2,3.2
			c-0.8-1.7-1.6-3.7-1.6-3.7s-0.5-1.1-0.5-1.1c-0.6-0.2-6.3-2.5-7-2.7l-1.1-0.4l-1.1,0.5l-5.5,2.4l-1.5,1.6c-0.6,1.6-1.6,3-2.8,4.3
			c-0.5,0.5-1,0.9-1.5,1.3c-0.5-2.3-0.2-4.8,0.6-7l0.4-1.1c0,0-0.5-1.1-0.5-1.1c-0.3-0.8-2.6-6-2.9-6.6c0,0-1.1-0.4-1.1-0.4
			c-0.7-0.3-6.5-2.5-7-2.7c-0.1,0-2.3,1-4.8,2.1c0-0.1,0.3-0.7,0.3-0.7c0.3-0.7,0.8-2.1,1.1-2.7c0.4-1,0.9-1.9,1.5-2.8
			c1.3-2.2,3-4.2,4.8-5.8c1-0.9,2.2-1.8,3.4-2.5c0.2-0.1,0.5-0.3,0.7-0.4c0.4-0.3,1.1-0.6,1.5-0.8l0.5-0.3c0.2-0.2,0.5-0.6,0.7-0.8
			c1.2-4,2.9-7.9,4.9-11.6c3.9-7,9.3-13.1,15.6-18.1c2.3-1.9,4.7-3.7,7.2-5.3c0.6,1.6,1.2,3.3,1.8,5c1.5,4.8,2.6,9.7,3.2,14.7
			c0.8-6.1,0.6-12.3,0-18.5c-0.2-2.1-0.5-4.1-0.9-6.2c0,0-0.9-3.4-0.9-3.4c-2.8,1.7-6,3.4-8.7,5.4c-3.6,2.5-6.9,5.2-10.1,8.2
			c-7.7,7.2-13.6,16.4-16.9,26.5c-0.3,0.1-0.5,0.3-0.7,0.4c-4.2,2.4-7.8,5.9-10.4,9.9c-0.9,1.4-1.8,3-2.4,4.6
			c-0.8,1.9-3,7.7-3.8,9.7l-2.5,6.3l6.2-2.7c0,0,7.2-3.1,8.9-3.9c1.1,0.4,2.6,1,3.8,1.5l1.5,3.4c-1,3.1-1.1,6.6-0.3,9.8
			c0.3,1.1,0.7,2.3,1.1,3.4c0,0,1.1,2.7,1.1,2.7c1.5-0.7,3.6-1.6,5-2.5c1.3-0.8,2.5-1.8,3.6-2.9c1.4-1.5,2.6-3.2,3.5-5.1l3.4-1.5
			l3.8,1.5c0.7,1.7,3.9,8.9,3.9,8.9s2.7,6.2,2.7,6.2C237,86.5,239.5,79.7,240.9,76.4z"/>
	</g>
	<g>
		<path class="st1" d="M62.5,85.1c-3.2,0-5.5-0.7-6.9-2c-1.4-1.4-2.2-3.2-2.2-5.4c0-1.1,0.2-2.5,0.6-4.2c0.4-1.7,0.9-3.5,1.6-5.6
			l0.6-0.1l2.2,1c-0.1,0.5-0.2,1.1-0.3,1.5c-0.1,0.5-0.1,0.9-0.1,1.2c0,0.9,0.5,1.5,1.5,1.9c1,0.4,2.5,0.6,4.6,0.6
			c1.6,0,3.1-0.1,4.4-0.3c1.3-0.2,2.5-0.4,3.4-0.7c0.9-0.3,1.6-0.6,2.1-1c0.5-0.3,0.7-0.7,0.7-1c0-0.7-1-1.8-3.1-3.4
			c-2.1-1.6-5.3-4-9.6-7.1l2-10.8l0.7-0.3c2.3,1.9,4.4,3.6,6.3,5.1c1.9,1.5,3.4,3,4.7,4.5s2.2,3,2.9,4.5c0.7,1.5,1,3.2,1,4.9
			c0,1.3-0.1,2.7-0.3,4c-0.2,1.3-0.4,2.5-0.7,3.7c-0.3,1.1-0.7,2.2-1.1,3.1c-0.4,0.9-0.9,1.6-1.4,2.2c-1,1-2.6,1.9-4.9,2.6
			C69,84.7,66.1,85.1,62.5,85.1z"/>
		<path class="st1" d="M90.4,83.7c-1.6-0.4-3-1.2-4.2-2.3c-1.2-1.1-2.2-2.5-2.9-4.3s-1.3-4.1-1.6-6.8c-0.6-6.1-1.2-11.8-1.6-17
			c-0.4-5.2-0.9-10.2-1.5-15.1l5.9-7l0.3,0.1c0.2,2.3,0.5,4.5,0.7,6.6c0.2,2.1,0.4,4.3,0.6,6.6c0.2,2.3,0.4,4.8,0.7,7.5
			c0.2,2.7,0.5,5.8,0.8,9.3c0.2,2.2,0.5,4.1,0.9,5.5c0.4,1.4,1,2.6,1.8,3.4c0.8,0.8,1.8,1.4,3,1.7c1.2,0.3,2.8,0.5,4.6,0.5
			l-2.2,11.9C93.8,84.4,92,84.1,90.4,83.7z"/>
		<path class="st1" d="M97.8,52.8c0.5,0.1,1.1,0.2,1.9,0.4c0.7,0.2,1.5,0.5,2.2,0.8c0.7,0.3,1.3,0.8,1.8,1.2c0.5,0.5,0.7,1,0.7,1.5
			c0,0.2-0.2,0.7-0.6,1.4c-0.4,0.7-0.8,1.4-1.1,2.1c-0.5,0.9-1,1.8-1.6,2.8c-0.6-0.6-1.3-1.2-2.1-1.7c-0.8-0.5-1.6-0.9-2.3-1.1
			c-0.9-0.3-1.8-0.6-2.7-0.8L97.8,52.8z M110.2,51.6c0.5,0.1,1.1,0.2,1.8,0.4c0.7,0.2,1.4,0.5,2.1,0.8c0.7,0.3,1.3,0.8,1.8,1.2
			c0.5,0.5,0.7,1,0.7,1.5c0,0.2-0.2,0.7-0.5,1.4c-0.3,0.7-0.7,1.4-1.1,2.1c-0.5,0.9-1,1.8-1.6,2.8c-0.6-0.6-1.3-1.2-2.2-1.7
			c-0.8-0.5-1.6-0.9-2.4-1.1c-0.9-0.3-1.8-0.6-2.7-0.8L110.2,51.6z"/>
		<path class="st1" d="M111.3,82.8c-1.5-1-2.3-2.3-2.6-3.8c-0.3,0.7-0.8,1.4-1.3,2c-0.5,0.6-1.3,1.2-2.3,1.7c-1,0.5-2.2,0.9-3.7,1.2
			c-1.5,0.3-3.4,0.4-5.7,0.4c-1.2,0-2-0.5-2.3-1.5c-0.3-1-0.2-2.5,0.2-4.5c0.4-2.1,0.9-3.6,1.6-4.5c0.6-0.9,1.6-1.4,2.7-1.4
			c1.6,0,3-0.2,4.2-0.5c1.2-0.3,2.2-0.9,3.1-1.6c0.9-0.7,1.7-1.6,2.3-2.7s1.3-2.4,1.8-3.9l2.8,1.1c-0.2,1.5-0.2,2.7-0.1,3.7
			c0.1,1,0.4,1.7,1,2.3c0.6,0.6,1.5,1,2.7,1.3c1.2,0.2,2.9,0.4,5.1,0.4l-2.2,11.9C115.3,84.4,112.8,83.8,111.3,82.8z"/>
		<path class="st1" d="M118.8,84.4c-1.2,0-2-0.5-2.3-1.5c-0.3-1-0.2-2.5,0.2-4.5c0.4-2.1,0.9-3.6,1.6-4.5c0.6-0.9,1.6-1.4,2.7-1.4
			c1.4,0,2.6-0.2,3.6-0.5c1-0.3,2-0.9,2.8-1.6c0.8-0.7,1.6-1.7,2.2-2.9c0.7-1.2,1.3-2.5,2-4.1l2.6,1.1c-0.4,1.6-0.6,2.9-0.5,3.9
			c0.1,1,0.3,1.8,0.7,2.4s0.9,1.1,1.5,1.3c0.6,0.2,1.3,0.4,2.1,0.4c0.7,0,1.4-0.1,2-0.3c0.6-0.2,1.1-0.6,1.6-1.2
			c0.5-0.6,1-1.3,1.5-2.3c0.5-1,1-2.2,1.5-3.7l2.8,1.1l-0.5,2.5c-0.3,1.6-0.1,2.7,0.7,3.2c0.8,0.5,1.8,0.7,3.1,0.7
			c1.5,0,2.7-0.3,3.6-0.9c-0.2-0.6-0.5-1.5-0.9-2.4c-0.4-1-1-2.4-1.9-4.2l4.6-8.7l0.6-0.1c1,2.7,1.8,4.8,2.3,6.4
			c0.5,1.6,0.9,2.9,1.2,3.9c0.2,1,0.4,1.7,0.4,2.3c0,0.5,0.1,1.1,0.1,1.7c0,1.7-0.2,3.4-0.6,5.1c-0.4,1.7-0.8,2.9-1.3,3.8
			c-0.8,1.6-2,2.8-3.6,3.7s-3.4,1.3-5.4,1.3c-1.8,0-3.2-0.3-4.2-1c-1-0.7-1.7-1.4-2.2-2.3c-0.6,1-1.5,1.8-2.6,2.4
			c-1.2,0.6-2.4,0.9-3.8,0.9c-1.9,0-3.5-0.6-4.9-1.7c-1.4-1.1-2.1-2.7-2.2-4.7c-0.3,0.6-0.8,1.3-1.3,2.1c-0.5,0.7-1.2,1.4-2,2.1
			s-1.9,1.2-3.2,1.6C122.1,84.1,120.6,84.4,118.8,84.4z"/>
		<path class="st1" d="M162.8,70.3c-0.6-6.1-1.2-11.8-1.6-17c-0.4-5.2-0.9-10.2-1.5-15.1l5.9-7l0.3,0.1c0.2,2.3,0.4,4.6,0.6,6.9
			c0.2,2.3,0.4,4.6,0.7,7c0.2,2.4,0.4,4.9,0.7,7.6c0.2,2.6,0.5,5.5,0.8,8.5c0.1,1.8,0.2,3.5,0.2,5.1c0,4.1-0.4,7.6-1.2,10.7
			c-0.8,3.1-1.9,5.7-3.4,7.8l-0.4-0.1c0-2.5-0.1-5-0.4-7.7C163.2,74.6,163,72.3,162.8,70.3z"/>
	</g>
	<g>
		<path class="st1" d="M5,66.1c-1.1,0-2-0.2-2.7-0.6c-0.7-0.4-1.3-0.9-1.7-1.6C0.2,63.3,0,62.5,0,61.6c0-0.9,0.1-1.7,0.4-2.5
			c0.3-0.8,0.7-1.5,1.3-2.1c0.6-0.6,1.3-1.1,2-1.4s1.7-0.5,2.7-0.5c1.1,0,2,0.2,2.7,0.6c0.7,0.4,1.3,0.9,1.7,1.6
			c0.4,0.7,0.6,1.5,0.6,2.3c0,0.9-0.1,1.7-0.4,2.5c-0.3,0.8-0.7,1.5-1.3,2.1c-0.6,0.6-1.3,1.1-2,1.4C6.9,65.9,6,66.1,5,66.1z
			 M5.1,65.1c0.8,0,1.5-0.1,2.2-0.4c0.6-0.3,1.2-0.7,1.7-1.2c0.5-0.5,0.8-1.1,1.1-1.7s0.4-1.3,0.4-2.1c0-0.7-0.2-1.3-0.5-1.8
			c-0.3-0.5-0.7-0.9-1.3-1.2s-1.3-0.4-2.2-0.4c-0.8,0-1.5,0.1-2.2,0.4c-0.6,0.3-1.2,0.7-1.7,1.2c-0.5,0.5-0.8,1.1-1.1,1.7
			s-0.4,1.3-0.4,2.1c0,0.7,0.2,1.3,0.5,1.8s0.7,0.9,1.3,1.2S4.2,65.1,5.1,65.1z"/>
		<path class="st1" d="M15,66.1c-0.7,0-1.3-0.1-1.9-0.3c-0.6-0.2-1-0.4-1.4-0.7l0.5-0.9c0.3,0.3,0.7,0.5,1.2,0.7
			c0.5,0.2,1,0.2,1.6,0.2c0.8,0,1.4-0.1,1.8-0.4c0.4-0.3,0.6-0.6,0.6-1.1c0-0.3-0.1-0.5-0.3-0.7c-0.2-0.2-0.5-0.3-0.9-0.4
			c-0.3-0.1-0.7-0.2-1.1-0.3c-0.4-0.1-0.8-0.2-1.1-0.3c-0.3-0.1-0.6-0.3-0.9-0.6c-0.2-0.3-0.3-0.6-0.3-1.1c0-0.5,0.1-1,0.4-1.3
			s0.7-0.7,1.2-0.9s1.1-0.3,1.8-0.3c0.5,0,1,0.1,1.5,0.2c0.5,0.1,0.9,0.3,1.2,0.6l-0.5,0.9c-0.3-0.2-0.7-0.4-1.1-0.5
			c-0.4-0.1-0.8-0.2-1.3-0.2c-0.7,0-1.3,0.1-1.7,0.4c-0.4,0.3-0.6,0.6-0.6,1.1c0,0.3,0.1,0.5,0.3,0.7c0.2,0.2,0.5,0.3,0.9,0.4
			c0.3,0.1,0.7,0.2,1.1,0.3c0.4,0.1,0.8,0.2,1.1,0.3c0.3,0.1,0.6,0.3,0.8,0.6c0.2,0.3,0.3,0.6,0.3,1.1c0,0.5-0.1,1-0.4,1.4
			c-0.3,0.4-0.7,0.7-1.3,0.9C16.3,65.9,15.7,66.1,15,66.1z"/>
		<path class="st1" d="M20.3,58.8l0.2-0.9h5l-0.2,0.9H20.3z M22.7,66.1c-0.5,0-0.9-0.1-1.2-0.3c-0.3-0.2-0.6-0.5-0.7-0.9
			c-0.1-0.4-0.1-0.8,0-1.3l1.5-7.4h1.1l-1.5,7.4c-0.1,0.5-0.1,0.9,0.1,1.2s0.5,0.4,1,0.4c0.2,0,0.4,0,0.7-0.1
			c0.2-0.1,0.4-0.2,0.6-0.3l0.3,0.8c-0.3,0.2-0.5,0.3-0.9,0.4C23.3,66,23,66.1,22.7,66.1z"/>
		<path class="st1" d="M29.5,66.1c-0.7,0-1.3-0.1-1.8-0.4s-0.9-0.7-1.2-1.2c-0.3-0.5-0.4-1.1-0.4-1.8c0-0.7,0.1-1.3,0.3-1.9
			c0.2-0.6,0.5-1.1,1-1.5c0.4-0.4,0.9-0.8,1.5-1s1.2-0.4,1.8-0.4c0.7,0,1.3,0.1,1.8,0.4s0.9,0.6,1.1,1.1s0.4,1.1,0.4,1.7
			c0,1-0.2,1.8-0.5,2.6c-0.4,0.8-0.9,1.4-1.5,1.8C31.2,65.8,30.4,66.1,29.5,66.1z M29.7,65.1c0.7,0,1.3-0.2,1.8-0.5
			c0.5-0.3,0.9-0.8,1.2-1.3s0.5-1.2,0.5-1.9c0-0.8-0.2-1.4-0.7-1.9c-0.5-0.4-1.1-0.7-2-0.7c-0.7,0-1.3,0.2-1.8,0.5
			c-0.5,0.3-0.9,0.8-1.3,1.3c-0.3,0.6-0.5,1.2-0.5,2c0,0.8,0.2,1.4,0.7,1.8C28.2,64.9,28.9,65.1,29.7,65.1z M32.4,66l0.5-2.3
			l0.5-1.6l0.2-1.7l0.5-2.4H35L33.4,66H32.4z"/>
		<path class="st1" d="M39.9,66.1c-0.7,0-1.3-0.1-1.8-0.4s-0.9-0.7-1.2-1.2c-0.3-0.5-0.4-1.1-0.4-1.8c0-0.7,0.1-1.3,0.3-1.9
			c0.2-0.6,0.5-1.1,1-1.5c0.4-0.4,0.9-0.8,1.5-1s1.2-0.4,1.8-0.4c0.7,0,1.3,0.1,1.8,0.4s0.9,0.6,1.1,1.1s0.4,1.1,0.4,1.7
			c0,0.7-0.1,1.4-0.3,2c-0.2,0.6-0.5,1.1-0.9,1.6c-0.4,0.5-0.9,0.8-1.4,1C41.2,65.9,40.6,66.1,39.9,66.1z M40.1,65.1
			c0.7,0,1.3-0.2,1.8-0.5c0.5-0.3,0.9-0.8,1.2-1.3s0.5-1.2,0.5-1.9c0-0.8-0.2-1.4-0.7-1.9c-0.5-0.4-1.1-0.7-2-0.7
			c-0.7,0-1.3,0.2-1.8,0.5c-0.5,0.3-0.9,0.8-1.3,1.3c-0.3,0.6-0.5,1.2-0.5,2c0,0.8,0.2,1.4,0.7,1.8C38.6,64.9,39.3,65.1,40.1,65.1z
			 M42.8,66l0.5-2.3l0.5-1.6l0.2-1.7l1.2-5.8h1.1L43.8,66H42.8z"/>
		<path class="st1" d="M15.1,80.6l-2.5-10.7h2.6l2.2,9.5h-1.6l6-9.5h2.6l-6.8,10.7H15.1z"/>
		<path class="st1" d="M23.1,80.6l2.1-10.7h4.3c1.3,0,2.4,0.3,3.1,0.9c0.7,0.6,1.1,1.4,1.1,2.5c0,0.9-0.2,1.7-0.6,2.4
			c-0.4,0.7-1,1.2-1.8,1.5c-0.8,0.4-1.7,0.5-2.8,0.5h-3.5l1.3-1.1l-0.8,4.1H23.1z M26.4,76.8l-0.9-1.2h3.2c0.8,0,1.5-0.2,1.9-0.6
			c0.5-0.4,0.7-0.9,0.7-1.6c0-0.5-0.2-0.9-0.5-1.2c-0.3-0.2-0.8-0.4-1.5-0.4h-3l1.3-1.2L26.4,76.8z"/>
		<path class="st1" d="M34.2,80.6l2.1-10.7h2.1l4.6,7.8l-0.8,0l1.5-7.7h2.5L44,80.6h-2l-4.6-7.8l0.8,0l-1.6,7.7H34.2z"/>
	</g>
	<g>
		<path class="st1" d="M13.4,30.4c0.2,0,0.4,0.1,0.6,0.2c0.3,0.1,0.5,0.2,0.7,0.3c0.2,0.1,0.4,0.3,0.6,0.4c0.2,0.2,0.3,0.3,0.3,0.5
			c0,0.1-0.1,0.3-0.2,0.5c-0.1,0.2-0.3,0.5-0.4,0.7l-0.6,1c-0.2-0.2-0.5-0.4-0.7-0.6c-0.3-0.2-0.5-0.3-0.8-0.4
			c-0.3-0.1-0.6-0.2-0.9-0.3L13.4,30.4z"/>
		<path class="st1" d="M12,39.8c-1.7,0-3.1-0.3-4.1-0.9c-1.1-0.6-1.8-1.4-2.1-2.5c-0.4-1.1-0.4-2.5,0-4.2c0.4-1.7,1.2-3.6,2.4-5.8
			l0.2-0.1l0.5,0.5c-1,1.9-1.6,3.6-1.9,4.9C6.7,33,6.8,34,7.1,34.8c0.4,0.8,1.1,1.3,2,1.6s2.2,0.5,3.7,0.5c1.1,0,2.3-0.1,3.4-0.4
			c1.1-0.3,2.1-0.6,2.9-1c0.9-0.4,1.5-0.8,2.1-1.2c0.5-0.4,0.8-0.7,0.8-0.9c0-0.5-0.2-1.4-0.6-2.6c-0.4-1.2-0.9-2.6-1.6-4.3l1.2-2.8
			l0.2,0c0.4,1,0.7,1.9,1,2.7c0.3,0.8,0.5,1.5,0.7,2.1c0.2,0.6,0.3,1.2,0.4,1.7c0.1,0.5,0.2,1,0.2,1.4c0,0.3,0,0.6-0.1,1
			c0,0.4-0.1,0.8-0.2,1.2c-0.1,0.4-0.2,0.8-0.3,1.1c-0.1,0.3-0.2,0.6-0.3,0.7c-0.4,0.7-1,1.2-1.8,1.8s-1.6,1-2.6,1.4
			c-1,0.4-2,0.7-3.1,0.9C14.1,39.7,13.1,39.8,12,39.8z"/>
		<path class="st1" d="M25,32.5c-0.3-2.9-0.6-5.6-0.8-8c-0.2-2.5-0.4-4.8-0.7-7.1l1.6-1.9l0.1,0.1c0.2,2.2,0.4,4.5,0.6,6.9
			c0.2,2.4,0.4,5,0.7,7.9c0.1,1.7,0.2,3.1,0.2,4.1c0,1.1-0.1,2-0.3,2.8c-0.2,0.8-0.5,1.6-0.9,2.4l-0.2,0v-0.6c0-1.1-0.1-2.2-0.2-3.4
			C25.2,34.3,25.1,33.3,25,32.5z"/>
		<path class="st1" d="M35.3,19.8c-1.1,0-2.1,0.1-2.8,0.3c-0.7,0.2-1.3,0.5-1.7,0.7c-0.4,0.3-0.7,0.6-0.9,0.8
			c-0.2,0.3-0.3,0.5-0.3,0.6c0.2,0.4,0.7,0.7,1.3,0.9c0.6,0.2,1.4,0.4,2.3,0.5c0.9,0.1,2,0.2,3.2,0.2c1.2,0,2.4,0.1,3.8,0.1
			c1.3,0,2.5,0,3.5,0c1.1,0,2.1,0,3.1,0c1,0,2-0.1,2.9-0.1c1,0,2-0.1,3.2-0.2l0.1,0.2l-3,2.8c-0.8,0.1-1.7,0.1-2.5,0.2
			c-0.9,0.1-1.8,0.1-2.8,0.1c-1,0-2.1,0-3.2,0.1c-1.2,0-2.5,0-4,0c-1.4,0-2.6,0-3.7-0.1c-1.1-0.1-2.1-0.2-2.9-0.5
			c-0.8-0.2-1.5-0.6-1.9-1.1c-0.5-0.5-0.7-1.2-0.7-2c0-0.9,0.2-1.7,0.6-2.4c0.4-0.8,0.9-1.4,1.6-2c0.7-0.6,1.5-1,2.5-1.4
			c1-0.3,2-0.5,3.2-0.5h3.5l-0.5,2.8H35.3z"/>
		<path class="st1" d="M31.7,32c0.2,0,0.4,0.1,0.6,0.2c0.3,0.1,0.5,0.2,0.7,0.3c0.2,0.1,0.4,0.3,0.6,0.4c0.2,0.2,0.3,0.3,0.3,0.5
			c0,0.1-0.1,0.3-0.2,0.5c-0.1,0.2-0.3,0.5-0.4,0.7l-0.6,1c-0.2-0.2-0.5-0.4-0.7-0.6c-0.3-0.2-0.5-0.3-0.8-0.4
			c-0.3-0.1-0.6-0.2-0.9-0.3L31.7,32z M34.1,35.5c0.2,0,0.4,0.1,0.6,0.1c0.2,0.1,0.5,0.2,0.7,0.3c0.2,0.1,0.4,0.3,0.6,0.4
			c0.2,0.2,0.2,0.3,0.2,0.5c0,0.1-0.1,0.2-0.2,0.5c-0.1,0.2-0.2,0.4-0.4,0.7c-0.2,0.3-0.3,0.6-0.5,0.9c-0.2-0.2-0.4-0.4-0.7-0.5
			c-0.3-0.2-0.5-0.3-0.8-0.4c-0.3-0.1-0.6-0.2-0.9-0.3L34.1,35.5z M35.8,31.5c0.2,0,0.4,0.1,0.6,0.2c0.3,0.1,0.5,0.2,0.8,0.3
			c0.2,0.1,0.5,0.3,0.6,0.4c0.2,0.2,0.2,0.3,0.2,0.5c0,0.1-0.1,0.3-0.2,0.5c-0.1,0.2-0.2,0.5-0.4,0.7l-0.6,1
			c-0.2-0.2-0.5-0.4-0.8-0.6c-0.3-0.2-0.6-0.3-0.8-0.4c-0.3-0.1-0.6-0.2-0.9-0.3L35.8,31.5z"/>
		<path class="st1" d="M38.9,19.8c-0.6,0-0.7-0.5-0.5-1.4c0.2-0.9,0.5-1.4,1.1-1.4c0.6,0,1.2,0,1.8-0.1c0.5-0.1,1-0.2,1.5-0.3
			c0.4-0.1,0.8-0.3,1.1-0.4c0.3-0.2,0.5-0.3,0.6-0.4c-0.1-0.3-0.3-0.8-0.6-1.5c-0.3-0.7-0.7-1.5-1.2-2.5l1.1-2.7l0.2,0
			c0.6,1.3,1.1,2.4,1.4,3.2c0.3,0.8,0.5,1.5,0.5,2.1c0,0.6-0.1,1.2-0.3,1.9c-0.2,0.7-0.4,1.2-0.6,1.6c-0.3,0.6-1,1.1-2.1,1.5
			C41.5,19.6,40.3,19.8,38.9,19.8z"/>
		<path class="st1" d="M55.2,34.9c0.8,0.1,1.4,0.2,1.9,0.4s0.9,0.3,1.2,0.4c0.3,0.2,0.5,0.4,0.6,0.6c0.1,0.2,0.2,0.6,0.2,0.9
			c0,0.3,0,0.6-0.1,0.9c0,0.3-0.1,0.7-0.2,1c-0.1,0.3-0.2,0.7-0.3,1c-0.1,0.3-0.2,0.5-0.3,0.7c-0.4,0.7-1,1.2-1.8,1.8
			c-0.8,0.5-1.7,1-2.6,1.4c-1,0.4-2,0.7-3.1,0.9c-1.1,0.2-2.1,0.3-3.2,0.3c-1.7,0-3.1-0.3-4.1-0.9c-1.1-0.6-1.8-1.4-2.1-2.5
			c-0.4-1.1-0.3-2.5,0.1-4.2c0.4-1.7,1.2-3.6,2.4-5.8l0.1-0.1l0.6,0.5c-1,1.9-1.6,3.6-1.9,4.9c-0.3,1.3-0.2,2.3,0.2,3.1
			c0.4,0.8,1.1,1.3,2,1.6c1,0.3,2.2,0.5,3.7,0.5c1.3,0,2.5-0.2,3.6-0.5c1.1-0.3,2.2-0.7,3-1.1c0.9-0.4,1.6-0.8,2.1-1.2
			c0.5-0.4,0.8-0.7,0.8-0.9c0-0.1-0.1-0.2-0.2-0.2c-0.1-0.1-0.3-0.1-0.7-0.2c-0.3-0.1-0.8-0.2-1.3-0.2c-0.6-0.1-1.3-0.2-2.2-0.3
			c-1.4-0.2-2.5-0.4-3.2-0.8c-0.7-0.4-1.1-1-1.1-2c0-0.6,0.1-1.2,0.4-1.9c0.3-0.7,0.6-1.3,1-1.9c0.4-0.6,0.9-1.2,1.5-1.8
			c0.5-0.6,1.1-1.1,1.7-1.5c0.6-0.4,1.1-0.8,1.7-1c0.5-0.3,1-0.4,1.5-0.4c0.7,0,1.1,0.4,1.3,1.3c0.2,0.8,0.1,1.9-0.4,3.3l-0.2,0
			c-0.2-1.1-0.7-1.6-1.6-1.6c-0.5,0-1.1,0.2-1.7,0.5c-0.6,0.3-1.2,0.7-1.7,1.2c-0.5,0.5-0.9,0.9-1.3,1.4c-0.3,0.5-0.5,0.9-0.5,1.2
			c0,0.2,0.1,0.3,0.2,0.4c0.1,0.1,0.4,0.2,0.7,0.3c0.3,0.1,0.7,0.2,1.3,0.3C53.7,34.6,54.3,34.7,55.2,34.9z"/>
		<path class="st1" d="M64.6,28.1c0.4,0,0.8,0.2,1.3,0.6c0.5,0.4,0.9,0.9,1.3,1.5c0.4,0.7,0.7,1.4,1,2.3c0.3,0.9,0.4,1.8,0.4,2.8
			c0,1.1-0.2,2.3-0.5,3.5c-0.4,1.2-0.8,2.2-1.4,3.1c-0.6,0.9-1.2,1.7-1.9,2.3c-0.7,0.6-1.5,0.9-2.2,0.9c-0.2,0-0.6,0-1.1-0.1
			c-0.5,0-1-0.1-1.5-0.2c-0.5-0.1-1.1-0.1-1.6-0.2c-0.5-0.1-0.9-0.1-1.3-0.2v-0.5c1.2-0.1,2.4-0.4,3.5-0.8c1.1-0.4,2.2-0.9,3.1-1.5
			c0.9-0.6,1.7-1.4,2.4-2.3c0.7-0.9,1.1-1.9,1.4-3c0-0.3-0.1-0.6-0.2-1c-0.2,0.6-0.6,1.1-1.2,1.5c-0.6,0.4-1.5,0.6-2.5,0.6
			c-1.1,0-1.9-0.2-2.4-0.6c-0.5-0.4-0.7-1-0.7-1.8c0-0.5,0.1-1.1,0.3-1.9c0.2-0.8,0.5-1.5,0.9-2.3c0.4-0.7,0.8-1.4,1.3-1.9
			C63.6,28.4,64.1,28.1,64.6,28.1z M64.4,34.6c0.4,0,0.8,0,1.2-0.1c0.4-0.1,0.8-0.2,1.2-0.4c-0.3-0.8-0.7-1.5-1.2-2.1
			c-0.5-0.6-1-0.9-1.6-0.9c-0.3,0-0.5,0.1-0.8,0.2c-0.3,0.2-0.5,0.4-0.7,0.6c-0.2,0.2-0.4,0.5-0.5,0.8c-0.1,0.3-0.2,0.6-0.2,1
			c0,0.4,0.2,0.6,0.6,0.7C62.8,34.5,63.5,34.6,64.4,34.6z"/>
	</g>
</g>
</svg>
