<?xml version="1.0" encoding="utf-8"?>
<!-- Generator: Adobe Illustrator 27.9.0, SVG Export Plug-In . SVG Version: 6.00 Build 0)  -->
<svg version="1.1" id="Layer_1" xmlns="http://www.w3.org/2000/svg" xmlns:xlink="http://www.w3.org/1999/xlink" x="0px" y="0px"
	 viewBox="0 0 139.5 139.5" style="enable-background:new 0 0 139.5 139.5;" xml:space="preserve">
<style type="text/css">
	.st0{fill:#FFFFFF;}
	.st1{fill:#676767;}
	.st2{fill:#E6E7E8;}
</style>
<g>
	<circle class="st0" cx="69.8" cy="69.8" r="68.8"/>
	<path class="st1" d="M69.8,2c37.4,0,67.8,30.4,67.8,67.8s-30.4,67.8-67.8,67.8S2,107.1,2,69.8S32.4,2,69.8,2 M69.8,0
		C31.2,0,0,31.2,0,69.8s31.2,69.8,69.8,69.8s69.8-31.2,69.8-69.8S108.3,0,69.8,0L69.8,0z"/>
</g>
<g>
	<path class="st1" d="M74.5,15.8c-0.6-0.1-1.1-0.2-1.6-0.4c-0.5-0.2-0.9-0.5-1.2-0.9s-0.6-0.8-0.7-1.3s-0.2-1-0.2-1.6
		s0.2-1.1,0.4-1.5c0.2-0.5,0.6-0.8,1-1.2c0.4-0.3,0.9-0.6,1.4-0.7C74,8,74.5,7.9,75.1,8c0.6,0.1,1.1,0.2,1.6,0.4
		c0.5,0.2,0.9,0.5,1.2,0.9s0.6,0.8,0.7,1.3s0.2,1,0.2,1.6c0,0.6-0.2,1.1-0.4,1.5c-0.2,0.5-0.6,0.8-1,1.2c-0.4,0.3-0.9,0.5-1.4,0.7
		C75.6,15.8,75,15.8,74.5,15.8z M74.6,14.5c0.4,0,0.7,0,1.1-0.1c0.3-0.1,0.6-0.3,0.9-0.5c0.3-0.2,0.5-0.5,0.6-0.8
		c0.2-0.3,0.3-0.7,0.3-1c0-0.4,0-0.8-0.1-1.1c-0.1-0.3-0.3-0.6-0.5-0.9c-0.2-0.3-0.5-0.5-0.8-0.6s-0.7-0.3-1-0.3s-0.7,0-1.1,0.1
		c-0.3,0.1-0.6,0.3-0.9,0.5c-0.3,0.2-0.5,0.5-0.6,0.8c-0.2,0.3-0.3,0.7-0.3,1c0,0.4,0,0.7,0.1,1.1c0.1,0.3,0.3,0.6,0.5,0.9
		c0.2,0.3,0.5,0.5,0.8,0.6C73.8,14.4,74.2,14.5,74.6,14.5z"/>
	<path class="st1" d="M81.4,16.8c-0.5-0.1-0.9-0.3-1.3-0.5c-0.4-0.2-0.7-0.4-0.9-0.7l0.7-0.9c0.2,0.2,0.5,0.4,0.8,0.6
		c0.3,0.2,0.7,0.3,1,0.4c0.4,0.1,0.7,0.1,0.9,0c0.2-0.1,0.3-0.2,0.4-0.4c0-0.2,0-0.3-0.1-0.4c-0.1-0.1-0.3-0.2-0.5-0.3
		c-0.2-0.1-0.4-0.2-0.7-0.3c-0.2-0.1-0.5-0.2-0.7-0.3c-0.2-0.1-0.4-0.3-0.6-0.4c-0.2-0.2-0.3-0.4-0.4-0.6c-0.1-0.2-0.1-0.5,0-0.8
		c0.1-0.4,0.3-0.7,0.5-0.9c0.3-0.2,0.6-0.4,1-0.4c0.4-0.1,0.9,0,1.4,0.1c0.4,0.1,0.8,0.2,1.1,0.4s0.7,0.4,0.9,0.6l-0.7,0.9
		c-0.2-0.2-0.5-0.4-0.7-0.5c-0.3-0.1-0.5-0.2-0.8-0.3c-0.4-0.1-0.7-0.1-0.9,0c-0.2,0.1-0.4,0.2-0.4,0.4c0,0.2,0,0.3,0.1,0.4
		c0.1,0.1,0.3,0.2,0.5,0.3c0.2,0.1,0.4,0.2,0.7,0.3c0.2,0.1,0.5,0.2,0.7,0.3c0.2,0.1,0.4,0.3,0.6,0.4c0.2,0.2,0.3,0.3,0.4,0.6
		c0.1,0.2,0.1,0.5,0,0.8c-0.1,0.4-0.2,0.6-0.5,0.9c-0.3,0.2-0.6,0.4-1,0.4C82.4,16.9,81.9,16.9,81.4,16.8z"/>
	<path class="st1" d="M87,18.3c-0.6-0.2-1-0.5-1.3-0.9c-0.2-0.4-0.2-0.9-0.1-1.5l1.6-5l1.3,0.4L87,16.2c-0.1,0.3-0.1,0.5,0,0.7
		s0.3,0.3,0.5,0.4c0.3,0.1,0.6,0.1,0.8,0l0.1,1c-0.2,0.1-0.4,0.1-0.6,0.1C87.4,18.4,87.2,18.4,87,18.3z M85.6,12.9l0.3-1l3.7,1.2
		l-0.3,1L85.6,12.9z"/>
	<path class="st1" d="M90.7,19.7c-0.4-0.2-0.7-0.4-1-0.7c-0.2-0.3-0.4-0.6-0.4-0.9c-0.1-0.3,0-0.6,0.1-0.9c0.1-0.3,0.3-0.5,0.6-0.7
		c0.2-0.2,0.6-0.3,0.9-0.3c0.4,0,0.8,0.1,1.4,0.4l1.5,0.7l-0.4,0.8L92,17.5c-0.4-0.2-0.7-0.2-0.9-0.2c-0.2,0.1-0.4,0.2-0.4,0.4
		c-0.1,0.2-0.1,0.4,0,0.7c0.1,0.2,0.3,0.4,0.7,0.5c0.3,0.1,0.6,0.2,0.9,0.1c0.3,0,0.6-0.2,0.8-0.4l-0.1,0.8c-0.3,0.3-0.6,0.4-1,0.4
		S91.2,19.9,90.7,19.7z M92.4,20.4l0.5-1.1l0-0.3l0.8-1.9c0.2-0.4,0.2-0.7,0-1c-0.1-0.3-0.4-0.5-0.9-0.7c-0.3-0.1-0.6-0.2-0.9-0.2
		c-0.3,0-0.6,0-0.9,0.1l-0.1-1.1c0.4-0.1,0.8-0.1,1.2-0.1s0.9,0.2,1.3,0.4c0.8,0.3,1.3,0.8,1.5,1.3c0.3,0.6,0.2,1.2-0.1,2l-1.4,3.1
		L92.4,20.4z"/>
	<path class="st1" d="M97,22.8c-0.5-0.3-0.8-0.6-1.1-1.1c-0.3-0.4-0.4-0.9-0.4-1.4c0-0.5,0.2-1,0.5-1.5s0.7-0.9,1.1-1.2
		s0.9-0.4,1.4-0.4c0.5,0,1,0.2,1.5,0.4c0.4,0.2,0.7,0.6,1,0.9c0.2,0.4,0.3,0.8,0.3,1.3c0,0.5-0.2,1-0.6,1.6c-0.3,0.6-0.7,1-1.1,1.3
		c-0.4,0.3-0.8,0.4-1.3,0.4C97.9,23.2,97.4,23.1,97,22.8z M97.8,21.9c0.3,0.2,0.6,0.3,0.9,0.3s0.6-0.1,0.9-0.2
		c0.3-0.2,0.5-0.4,0.7-0.7c0.2-0.3,0.3-0.6,0.3-1s-0.1-0.6-0.2-0.9c-0.1-0.3-0.4-0.5-0.6-0.6c-0.3-0.2-0.6-0.3-0.9-0.3
		c-0.3,0-0.6,0.1-0.9,0.2c-0.3,0.2-0.5,0.4-0.7,0.7c-0.2,0.3-0.3,0.6-0.3,1c0,0.3,0.1,0.6,0.2,0.9C97.3,21.6,97.5,21.8,97.8,21.9z
		 M98.7,23.8l0.7-1.2l0.8-1.3l0.7-1.4l1.8-3.1l1.2,0.7l-4.1,6.9L98.7,23.8z"/>
	<path class="st1" d="M105.1,28.5l2.6-7.8l1.7,1.5l-2.3,6.7l-1-0.9l6.5-3.1l1.6,1.4l-7.5,3.5L105.1,28.5z"/>
	<path class="st1" d="M109.3,32.4l5.8-4.9l2.2,2.7c0.4,0.5,0.7,1.1,0.9,1.6c0.2,0.5,0.2,1,0,1.5s-0.4,0.9-0.9,1.3
		c-0.4,0.4-0.9,0.6-1.4,0.6c-0.5,0.1-1,0-1.5-0.3c-0.5-0.2-1-0.6-1.4-1.2l-1.5-1.7l1.3,0.1l-2.2,1.9L109.3,32.4z M112.7,32.3
		l0.1-1.4l1.4,1.6c0.3,0.3,0.6,0.5,0.9,0.6s0.6,0,0.8-0.3c0.3-0.2,0.4-0.5,0.4-0.8c0-0.3-0.1-0.6-0.4-1l-1.4-1.6l1.4,0.1L112.7,32.3
		z"/>
	<path class="st1" d="M114.2,38.3l6.5-4l0.9,1.5l-2.1,6.2l-0.4-0.7l4.3-2.6l1.1,1.8l-6.5,4l-0.9-1.5l2.1-6.2l0.4,0.7l-4.3,2.6
		L114.2,38.3z"/>
	<path class="st1" d="M122.7,48.2c-0.1-0.3-0.1-0.6,0-0.9c0.1-0.3,0.4-0.5,0.7-0.7c0.3-0.1,0.7-0.1,1,0s0.5,0.4,0.6,0.7
		c0.1,0.3,0.1,0.6,0,0.9c-0.1,0.3-0.3,0.5-0.7,0.7c-0.3,0.1-0.6,0.1-0.9,0C123,48.7,122.8,48.5,122.7,48.2z"/>
	<path class="st1" d="M122.7,57.8c-0.1-0.6-0.2-1.1-0.1-1.7s0.3-1,0.5-1.5c0.3-0.4,0.6-0.8,1-1.1c0.4-0.3,0.9-0.5,1.5-0.6
		s1.1-0.1,1.6,0c0.5,0.1,1,0.3,1.4,0.6c0.4,0.3,0.8,0.6,1.1,1.1c0.3,0.4,0.5,1,0.6,1.5c0.1,0.6,0.2,1.1,0.1,1.7s-0.3,1-0.5,1.4
		c-0.3,0.4-0.6,0.8-1,1.1s-0.9,0.5-1.5,0.6c-0.6,0.1-1.1,0.1-1.6,0s-1-0.3-1.4-0.6c-0.4-0.3-0.8-0.6-1.1-1.1
		C123,58.9,122.8,58.4,122.7,57.8z M123.9,57.5c0.1,0.4,0.2,0.7,0.4,1c0.2,0.3,0.4,0.5,0.7,0.7c0.3,0.2,0.6,0.3,0.9,0.4s0.7,0,1.1,0
		c0.4-0.1,0.7-0.2,1-0.4c0.3-0.2,0.5-0.4,0.7-0.7c0.2-0.3,0.3-0.6,0.4-0.9c0.1-0.3,0-0.7,0-1.1c-0.1-0.4-0.2-0.7-0.4-1
		c-0.2-0.3-0.4-0.5-0.7-0.7c-0.3-0.2-0.6-0.3-1-0.4s-0.7,0-1.1,0c-0.4,0.1-0.7,0.2-1,0.4c-0.3,0.2-0.5,0.4-0.7,0.7
		c-0.2,0.3-0.3,0.6-0.4,0.9C123.8,56.8,123.8,57.2,123.9,57.5z"/>
	<path class="st1" d="M123.8,64.7c0-0.5,0-1,0.1-1.4c0.1-0.5,0.2-0.8,0.4-1.1l1.1,0.4c-0.1,0.3-0.3,0.6-0.3,1
		c-0.1,0.4-0.1,0.7-0.1,1.1c0,0.4,0.1,0.7,0.3,0.9c0.1,0.2,0.3,0.3,0.5,0.2c0.2,0,0.3-0.1,0.3-0.2c0.1-0.1,0.1-0.3,0.1-0.5
		c0-0.2,0-0.4,0.1-0.7c0-0.3,0-0.5,0.1-0.8c0-0.3,0.1-0.5,0.2-0.7c0.1-0.2,0.2-0.4,0.4-0.6s0.5-0.2,0.8-0.3c0.4,0,0.7,0,1,0.2
		c0.3,0.2,0.5,0.5,0.7,0.8c0.2,0.4,0.3,0.8,0.3,1.3c0,0.4,0,0.8,0,1.2s-0.1,0.7-0.3,1l-1.1-0.4c0.1-0.3,0.2-0.6,0.3-0.9
		c0-0.3,0-0.6,0-0.8c0-0.4-0.1-0.7-0.3-0.9c-0.1-0.2-0.3-0.3-0.5-0.3c-0.2,0-0.3,0.1-0.4,0.2c-0.1,0.1-0.1,0.3-0.2,0.5
		c0,0.2-0.1,0.4-0.1,0.7c0,0.3,0,0.5-0.1,0.8c0,0.3-0.1,0.5-0.2,0.7s-0.2,0.4-0.4,0.6c-0.2,0.1-0.4,0.2-0.8,0.3c-0.4,0-0.7,0-1-0.2
		c-0.3-0.2-0.5-0.5-0.7-0.8C123.9,65.7,123.8,65.3,123.8,64.7z"/>
	<path class="st1" d="M124,70.6c0-0.6,0.2-1.1,0.5-1.5c0.3-0.3,0.8-0.5,1.5-0.5l5.2,0.1l0,1.4l-5.2-0.1c-0.3,0-0.5,0.1-0.6,0.2
		s-0.2,0.3-0.2,0.6c0,0.3,0.1,0.6,0.2,0.8l-1,0.4c-0.1-0.2-0.2-0.4-0.3-0.6S124,70.8,124,70.6z M128.8,67.7l1.1,0l-0.1,3.9l-1.1,0
		L128.8,67.7z"/>
	<path class="st1" d="M123.7,76.4l1.2,0.1l0.3-0.1l2,0.2c0.4,0,0.7,0,1-0.3c0.2-0.2,0.4-0.6,0.4-1c0-0.3,0-0.6-0.1-1
		c-0.1-0.3-0.2-0.6-0.3-0.8l1-0.4c0.2,0.3,0.3,0.7,0.4,1.2c0.1,0.4,0.1,0.9,0,1.4c-0.1,0.8-0.3,1.5-0.8,1.9
		c-0.4,0.4-1.1,0.6-1.9,0.5l-3.4-0.3L123.7,76.4z M123.8,74.5c0-0.4,0.2-0.8,0.3-1.1s0.4-0.5,0.7-0.7c0.3-0.2,0.6-0.2,0.9-0.2
		c0.3,0,0.6,0.1,0.9,0.3c0.2,0.2,0.4,0.5,0.5,0.8c0.1,0.4,0.1,0.8,0.1,1.4l-0.2,1.7l-0.9-0.1l0.2-1.6c0-0.5,0-0.8-0.1-1
		c-0.1-0.2-0.3-0.3-0.5-0.3c-0.2,0-0.4,0.1-0.6,0.2s-0.3,0.4-0.3,0.8c0,0.3,0,0.6,0.1,0.9c0.1,0.3,0.3,0.5,0.6,0.6l-0.8,0.1
		c-0.3-0.2-0.6-0.4-0.7-0.8C123.8,75.5,123.8,75,123.8,74.5z"/>
	<path class="st1" d="M122.4,83.4l1.3,0.3l1.5,0.4l1.5,0.2l3.5,0.8l-0.3,1.3l-7.9-1.8L122.4,83.4z M122.7,81.5
		c0.1-0.5,0.4-1,0.7-1.4c0.3-0.4,0.8-0.6,1.2-0.8c0.5-0.1,1-0.2,1.6,0c0.6,0.1,1.1,0.4,1.4,0.7c0.4,0.3,0.6,0.8,0.8,1.3s0.2,1,0,1.5
		c-0.1,0.5-0.3,0.9-0.6,1.2c-0.3,0.3-0.7,0.6-1.2,0.7c-0.5,0.1-1,0.1-1.7,0c-0.7-0.1-1.2-0.4-1.6-0.7c-0.4-0.3-0.6-0.7-0.8-1.1
		C122.6,82.4,122.6,82,122.7,81.5z M123.8,81.9c-0.1,0.3-0.1,0.6,0,0.9c0.1,0.3,0.2,0.5,0.5,0.7c0.2,0.2,0.5,0.4,0.9,0.4
		c0.4,0.1,0.7,0.1,1,0c0.3-0.1,0.5-0.2,0.7-0.5c0.2-0.2,0.3-0.5,0.4-0.8c0.1-0.3,0.1-0.6,0-0.9c-0.1-0.3-0.2-0.5-0.5-0.7
		c-0.2-0.2-0.5-0.4-0.9-0.4c-0.4-0.1-0.7-0.1-1,0s-0.6,0.2-0.8,0.5C124.1,81.3,123.9,81.6,123.8,81.9z"/>
	<path class="st1" d="M119.8,90.9l8.3,0.1l-0.9,2.1L120,93l0.6-1.2l4.9,5.2l-0.9,1.9l-5.6-6.1L119.8,90.9z"/>
	<path class="st1" d="M117.4,96.1l6.4,4.1l-1.9,2.9c-0.4,0.6-0.8,1-1.2,1.3c-0.5,0.3-0.9,0.5-1.4,0.5s-1-0.1-1.5-0.5
		c-0.5-0.3-0.8-0.7-1-1.1c-0.2-0.5-0.3-1-0.2-1.5c0.1-0.5,0.3-1.1,0.7-1.7l1.2-1.9l0.3,1.3l-2.5-1.6L117.4,96.1z M118.5,99.3
		l1.3-0.3l-1.2,1.8c-0.2,0.4-0.3,0.7-0.3,1s0.2,0.5,0.5,0.7c0.3,0.2,0.6,0.2,0.9,0.2c0.3-0.1,0.5-0.3,0.8-0.7l1.2-1.8l0.3,1.3
		L118.5,99.3z"/>
	<path class="st1" d="M113.2,102.6l5.7,5l-1.2,1.3l-6.6-0.1l0.5-0.6l3.8,3.3l-1.4,1.6l-5.7-5l1.2-1.3l6.6,0.1l-0.5,0.6l-3.8-3.3
		L113.2,102.6z"/>
	<path class="st1" d="M106.4,113.6c0.3-0.2,0.6-0.3,0.9-0.3c0.3,0,0.6,0.2,0.8,0.4c0.2,0.3,0.3,0.6,0.3,0.9c0,0.3-0.2,0.6-0.5,0.8
		s-0.6,0.3-0.9,0.3c-0.3,0-0.6-0.2-0.8-0.4c-0.2-0.3-0.3-0.6-0.3-0.9C106,114.1,106.1,113.8,106.4,113.6z"/>
	<path class="st1" d="M97.2,116.5c0.5-0.3,1-0.5,1.6-0.6c0.5-0.1,1-0.1,1.5,0c0.5,0.1,1,0.3,1.4,0.6s0.8,0.7,1.1,1.2
		c0.3,0.5,0.5,1,0.5,1.5c0.1,0.5,0,1-0.1,1.5s-0.4,0.9-0.7,1.4c-0.3,0.4-0.8,0.8-1.3,1.1c-0.5,0.3-1,0.5-1.6,0.6
		c-0.5,0.1-1,0.1-1.5,0c-0.5-0.1-1-0.3-1.4-0.6c-0.4-0.3-0.8-0.7-1.1-1.2s-0.5-1-0.5-1.5c-0.1-0.5,0-1,0.1-1.5
		c0.1-0.5,0.4-0.9,0.7-1.4C96.3,117.2,96.7,116.8,97.2,116.5z M97.8,117.6c-0.3,0.2-0.6,0.4-0.8,0.7c-0.2,0.3-0.4,0.6-0.4,0.9
		s-0.1,0.7-0.1,1c0,0.3,0.2,0.7,0.4,1s0.4,0.6,0.7,0.8c0.3,0.2,0.6,0.4,0.9,0.4s0.7,0.1,1,0.1c0.3-0.1,0.7-0.2,1-0.4
		c0.3-0.2,0.6-0.4,0.8-0.7c0.2-0.3,0.4-0.6,0.4-0.9c0.1-0.3,0.1-0.7,0.1-1s-0.2-0.7-0.4-1c-0.2-0.3-0.4-0.6-0.7-0.8
		s-0.6-0.4-0.9-0.5c-0.3-0.1-0.7-0.1-1-0.1C98.5,117.3,98.2,117.4,97.8,117.6z"/>
	<path class="st1" d="M91,119.7c0.4-0.2,0.9-0.3,1.4-0.4s0.8-0.1,1.2,0l-0.1,1.2c-0.3-0.1-0.6-0.1-1,0c-0.4,0-0.7,0.1-1.1,0.3
		c-0.4,0.2-0.7,0.3-0.8,0.5c-0.1,0.2-0.2,0.4-0.1,0.5c0.1,0.1,0.2,0.2,0.3,0.3s0.3,0,0.5,0c0.2,0,0.4-0.1,0.7-0.2
		c0.3-0.1,0.5-0.1,0.8-0.2c0.3,0,0.5-0.1,0.8,0c0.2,0,0.5,0.1,0.7,0.2c0.2,0.1,0.4,0.4,0.5,0.7c0.1,0.3,0.2,0.7,0.1,1
		c-0.1,0.3-0.3,0.6-0.6,0.9s-0.7,0.5-1.2,0.7c-0.4,0.2-0.7,0.3-1.1,0.3c-0.4,0.1-0.8,0.1-1.1,0l0.1-1.2c0.3,0,0.6,0,0.9,0
		c0.3-0.1,0.5-0.1,0.8-0.2c0.4-0.2,0.6-0.3,0.8-0.5c0.1-0.2,0.2-0.4,0.1-0.5c-0.1-0.2-0.2-0.3-0.3-0.3s-0.3,0-0.6,0
		c-0.2,0-0.4,0.1-0.7,0.2s-0.5,0.1-0.8,0.2c-0.3,0-0.5,0-0.7,0c-0.2,0-0.5-0.1-0.7-0.2c-0.2-0.1-0.4-0.4-0.5-0.7
		c-0.1-0.3-0.2-0.7-0.1-1c0.1-0.3,0.3-0.6,0.6-0.9S90.5,119.9,91,119.7z"/>
	<path class="st1" d="M85.5,121.7c0.6-0.2,1.1-0.2,1.6,0c0.4,0.2,0.7,0.6,0.9,1.2l1.6,5l-1.3,0.4l-1.6-4.9c-0.1-0.3-0.2-0.4-0.4-0.5
		c-0.2-0.1-0.4-0.1-0.6,0c-0.3,0.1-0.5,0.2-0.7,0.5l-0.7-0.8c0.1-0.2,0.3-0.3,0.5-0.5C85.1,121.9,85.3,121.8,85.5,121.7z
		 M89.8,125.3l0.3,1l-3.7,1.2l-0.3-1L89.8,125.3z"/>
	<path class="st1" d="M79.9,123.2l0.2,1.1l0.1,0.2l0.4,2c0.1,0.4,0.3,0.7,0.5,0.8c0.3,0.2,0.7,0.2,1.1,0.1c0.3-0.1,0.6-0.2,0.9-0.3
		s0.5-0.4,0.7-0.6l0.7,0.9c-0.3,0.3-0.6,0.5-1,0.8c-0.4,0.2-0.8,0.4-1.3,0.5c-0.8,0.2-1.5,0.1-2-0.2s-0.9-0.9-1.1-1.7l-0.7-3.3
		L79.9,123.2z M81.7,122.7c0.4-0.1,0.8-0.1,1.2,0c0.3,0.1,0.6,0.2,0.9,0.4s0.4,0.5,0.4,0.8c0.1,0.3,0.1,0.6,0,0.9s-0.3,0.5-0.6,0.8
		c-0.3,0.2-0.8,0.4-1.3,0.5l-1.6,0.3l-0.2-0.9l1.6-0.3c0.5-0.1,0.7-0.2,0.9-0.4c0.1-0.2,0.2-0.4,0.1-0.6c-0.1-0.2-0.2-0.4-0.4-0.5
		c-0.2-0.1-0.5-0.1-0.8,0c-0.3,0.1-0.6,0.2-0.8,0.4c-0.2,0.2-0.4,0.5-0.4,0.8l-0.4-0.8c0.1-0.4,0.2-0.7,0.5-0.9
		C80.8,123,81.1,122.8,81.7,122.7z"/>
	<path class="st1" d="M72.8,124l0.1,1.4l0.1,1.5l0.2,1.5l0.3,3.6l-1.3,0.1l-0.7-8L72.8,124z M74.7,123.8c0.6,0,1.1,0,1.5,0.2
		c0.5,0.2,0.8,0.5,1.1,0.9c0.3,0.4,0.5,0.9,0.5,1.5c0,0.6,0,1.1-0.3,1.6s-0.5,0.8-1,1.1c-0.4,0.3-0.9,0.4-1.5,0.5
		c-0.5,0-0.9,0-1.3-0.2c-0.4-0.2-0.7-0.5-1-0.9c-0.3-0.4-0.4-1-0.5-1.6c-0.1-0.7,0-1.2,0.2-1.7c0.2-0.5,0.5-0.8,0.8-1.1
		C73.7,124,74.2,123.8,74.7,123.8z M74.6,125c-0.3,0-0.6,0.1-0.9,0.3s-0.4,0.4-0.6,0.7c-0.1,0.3-0.2,0.6-0.2,1
		c0,0.4,0.1,0.7,0.3,0.9s0.4,0.4,0.7,0.6c0.3,0.1,0.6,0.2,0.9,0.1c0.3,0,0.6-0.1,0.9-0.3s0.4-0.4,0.6-0.7c0.1-0.3,0.2-0.6,0.2-1
		c0-0.4-0.1-0.7-0.3-0.9s-0.4-0.5-0.7-0.6C75.2,125,74.9,124.9,74.6,125z"/>
	<path class="st1" d="M64.8,123.9l2.4,7.9l-2.3-0.3l-2-6.8l1.4,0.1l-3.5,6.2l-2.1-0.2l4.1-7.2L64.8,123.9z"/>
	<path class="st1" d="M59.2,123.2l-1.9,7.4l-3.4-0.9c-0.7-0.2-1.2-0.4-1.7-0.8c-0.4-0.3-0.7-0.8-0.9-1.2c-0.2-0.5-0.2-1,0-1.6
		c0.1-0.6,0.4-1,0.8-1.3s0.8-0.6,1.4-0.6c0.5-0.1,1.2-0.1,1.8,0.1l2.2,0.6l-1.2,0.7l0.7-2.8L59.2,123.2z M56.4,125.2l0.7,1.2
		l-2.1-0.5c-0.4-0.1-0.8-0.1-1,0s-0.4,0.4-0.5,0.7c-0.1,0.3-0.1,0.6,0.1,0.9c0.2,0.2,0.5,0.4,0.9,0.5l2.1,0.5l-1.2,0.7L56.4,125.2z"
		/>
	<path class="st1" d="M51.7,121.1l-3,7l-1.6-0.7l-1.9-6.3l0.8,0.3l-2,4.6l-1.9-0.8l3-7l1.6,0.7l1.9,6.3l-0.8-0.3l2-4.6L51.7,121.1z"
		/>
	<path class="st1" d="M39.1,118c0.3,0.2,0.5,0.4,0.6,0.8c0.1,0.3,0,0.6-0.2,0.9c-0.2,0.3-0.5,0.5-0.8,0.6c-0.3,0.1-0.6,0-0.9-0.2
		c-0.3-0.2-0.5-0.4-0.6-0.8c-0.1-0.3,0-0.6,0.2-0.9c0.2-0.3,0.4-0.5,0.8-0.5C38.5,117.7,38.8,117.8,39.1,118z"/>
	<path class="st1" d="M33.5,110.1c0.4,0.4,0.8,0.8,1,1.3c0.2,0.5,0.4,1,0.4,1.5c0,0.5,0,1-0.2,1.5c-0.2,0.5-0.4,0.9-0.8,1.4
		s-0.8,0.7-1.3,1c-0.5,0.2-1,0.3-1.5,0.3c-0.5,0-1-0.1-1.5-0.3c-0.5-0.2-1-0.5-1.4-0.9c-0.4-0.4-0.8-0.8-1-1.3
		c-0.2-0.5-0.4-1-0.4-1.5c0-0.5,0-1,0.2-1.5c0.2-0.5,0.4-0.9,0.8-1.4s0.8-0.7,1.3-1c0.5-0.2,1-0.3,1.5-0.3c0.5,0,1,0.1,1.5,0.3
		C32.6,109.4,33.1,109.7,33.5,110.1z M32.7,111c-0.3-0.3-0.6-0.4-0.9-0.6c-0.3-0.1-0.7-0.2-1-0.2c-0.3,0-0.7,0.1-1,0.3
		c-0.3,0.1-0.6,0.4-0.9,0.7c-0.3,0.3-0.4,0.6-0.6,0.9s-0.2,0.7-0.2,1c0,0.3,0.1,0.7,0.3,1c0.2,0.3,0.4,0.6,0.7,0.9
		c0.3,0.3,0.6,0.4,0.9,0.6c0.3,0.1,0.7,0.2,1,0.1c0.3,0,0.7-0.1,1-0.3s0.6-0.4,0.9-0.7c0.3-0.3,0.4-0.6,0.6-0.9
		c0.1-0.3,0.2-0.7,0.2-1c0-0.3-0.1-0.7-0.3-1C33.2,111.6,33,111.3,32.7,111z"/>
	<path class="st1" d="M28.6,105.1c0.3,0.4,0.6,0.8,0.8,1.2c0.2,0.4,0.3,0.8,0.3,1.1l-1.1,0.3c0-0.3-0.1-0.6-0.3-1
		c-0.2-0.3-0.3-0.7-0.6-0.9c-0.3-0.3-0.5-0.5-0.7-0.6c-0.2-0.1-0.4,0-0.5,0.1c-0.1,0.1-0.2,0.2-0.1,0.4c0,0.2,0.1,0.3,0.2,0.5
		c0.1,0.2,0.2,0.4,0.4,0.6s0.3,0.4,0.4,0.7c0.1,0.2,0.2,0.5,0.2,0.7s0,0.5,0,0.7c-0.1,0.2-0.2,0.5-0.5,0.7c-0.3,0.2-0.6,0.4-0.9,0.4
		s-0.7-0.1-1.1-0.3c-0.4-0.2-0.7-0.5-1-0.9c-0.3-0.3-0.5-0.6-0.7-1s-0.3-0.7-0.4-1l1.1-0.3c0.1,0.3,0.1,0.6,0.3,0.9
		c0.1,0.3,0.3,0.5,0.5,0.7c0.3,0.3,0.5,0.5,0.7,0.6s0.4,0,0.5-0.1c0.1-0.1,0.2-0.2,0.2-0.4c0-0.2-0.1-0.3-0.2-0.5s-0.2-0.4-0.4-0.6
		s-0.3-0.4-0.4-0.7s-0.2-0.5-0.3-0.7s0-0.5,0-0.7c0.1-0.2,0.2-0.5,0.5-0.7c0.3-0.2,0.6-0.4,0.9-0.4c0.3,0,0.7,0.1,1.1,0.3
		C27.9,104.4,28.3,104.7,28.6,105.1z"/>
	<path class="st1" d="M25.1,100.5c0.4,0.5,0.5,1,0.5,1.5c-0.1,0.5-0.4,0.9-0.9,1.3l-4.2,3l-0.8-1.1l4.2-3c0.2-0.2,0.4-0.3,0.4-0.5
		c0-0.2,0-0.4-0.2-0.6c-0.2-0.2-0.4-0.4-0.6-0.5l0.6-0.9c0.2,0.1,0.4,0.2,0.6,0.3C24.8,100.1,24.9,100.3,25.1,100.5z M22.9,105.7
		l-0.9,0.6l-2.2-3.2l0.9-0.6L22.9,105.7z"/>
	<path class="st1" d="M22,95.6l-1,0.6l-0.2,0.2l-1.8,1c-0.3,0.2-0.6,0.5-0.6,0.8c-0.1,0.3,0,0.7,0.2,1.1c0.2,0.3,0.4,0.5,0.6,0.8
		c0.2,0.2,0.5,0.4,0.8,0.5l-0.6,1c-0.4-0.2-0.7-0.4-1-0.7s-0.6-0.7-0.8-1.1c-0.4-0.7-0.6-1.4-0.4-2c0.1-0.6,0.5-1.1,1.3-1.5l3-1.7
		L22,95.6z M22.9,97.2c0.2,0.4,0.3,0.7,0.4,1.1c0,0.4,0,0.7-0.2,1c-0.1,0.3-0.4,0.5-0.6,0.7c-0.3,0.2-0.6,0.2-0.9,0.2
		c-0.3,0-0.6-0.1-0.9-0.4s-0.6-0.6-0.9-1.1L19,97.2l0.8-0.4l0.8,1.4c0.2,0.4,0.4,0.6,0.7,0.7c0.2,0.1,0.4,0,0.6-0.1
		c0.2-0.1,0.3-0.3,0.4-0.5c0-0.2,0-0.5-0.2-0.8c-0.2-0.3-0.4-0.5-0.6-0.7c-0.3-0.2-0.6-0.2-0.9-0.2L21,96c0.4-0.1,0.7,0,1,0.2
		S22.7,96.7,22.9,97.2z"/>
	<path class="st1" d="M19,89.1l-1.3,0.5l-1.4,0.5l-1.4,0.7l-3.3,1.4L11,91l7.4-3.1L19,89.1z M19.8,90.9c0.2,0.5,0.3,1,0.2,1.5
		s-0.2,1-0.6,1.4c-0.3,0.4-0.7,0.7-1.3,0.9c-0.6,0.2-1.1,0.3-1.6,0.2s-1-0.3-1.4-0.6c-0.4-0.3-0.7-0.7-0.9-1.2
		c-0.2-0.4-0.3-0.9-0.2-1.3c0.1-0.4,0.2-0.8,0.5-1.2c0.3-0.4,0.8-0.7,1.4-1c0.6-0.3,1.2-0.4,1.7-0.3s0.9,0.2,1.3,0.5
		C19.3,90,19.6,90.4,19.8,90.9z M18.6,91.2c-0.1-0.3-0.3-0.5-0.5-0.7c-0.2-0.2-0.5-0.3-0.8-0.3c-0.3,0-0.6,0-1,0.2
		c-0.3,0.1-0.6,0.3-0.8,0.6c-0.2,0.2-0.3,0.5-0.3,0.8c0,0.3,0,0.6,0.1,0.9c0.1,0.3,0.3,0.5,0.5,0.7c0.2,0.2,0.5,0.3,0.8,0.3
		c0.3,0,0.6,0,1-0.2c0.3-0.1,0.6-0.3,0.8-0.6c0.2-0.2,0.3-0.5,0.3-0.8C18.8,91.7,18.8,91.5,18.6,91.2z"/>
	<path class="st1" d="M16.7,81.5l-6.8,4.7l-0.5-2.3l5.9-4l0.3,1.3l-7-1.5l-0.4-2.1l8.1,1.7L16.7,81.5z"/>
	<path class="st1" d="M15.7,75.9l-7.6,0.4l-0.2-3.5c0-0.7,0-1.3,0.2-1.8c0.2-0.5,0.5-0.9,0.9-1.2s0.9-0.5,1.5-0.5
		c0.6,0,1.1,0.1,1.5,0.3c0.4,0.3,0.8,0.6,1,1.1s0.4,1.1,0.4,1.8l0.1,2.3l-1-0.9l2.9-0.2L15.7,75.9z M12.9,73.9l-0.9,1l-0.1-2.1
		c0-0.4-0.1-0.8-0.3-1s-0.5-0.3-0.8-0.3c-0.4,0-0.6,0.1-0.8,0.4c-0.2,0.2-0.3,0.6-0.2,1L9.7,75l-1-0.9L12.9,73.9z"/>
	<path class="st1" d="M15.3,68.1l-7.6-0.7L8,65.6l5.4-3.7l-0.1,0.8l-5-0.5l0.2-2.1l7.6,0.7l-0.2,1.8l-5.4,3.7l0.1-0.8l5,0.5
		L15.3,68.1z"/>
	<path class="st1" d="M14.5,55.2c-0.1,0.3-0.3,0.6-0.6,0.8c-0.3,0.2-0.6,0.2-0.9,0.1c-0.4-0.1-0.6-0.3-0.8-0.6
		c-0.2-0.3-0.2-0.6-0.1-0.9s0.3-0.6,0.5-0.8s0.6-0.2,0.9-0.1c0.3,0.1,0.6,0.3,0.8,0.6C14.6,54.5,14.6,54.8,14.5,55.2z"/>
	<path class="st1" d="M20.3,47.5c-0.2,0.5-0.6,1-0.9,1.4s-0.8,0.7-1.3,0.9c-0.5,0.2-1,0.3-1.5,0.3c-0.5,0-1-0.1-1.5-0.4
		c-0.5-0.2-0.9-0.5-1.3-0.9c-0.3-0.4-0.6-0.8-0.8-1.3c-0.2-0.5-0.2-1-0.2-1.5c0-0.5,0.2-1.1,0.4-1.6c0.2-0.5,0.6-1,0.9-1.4
		c0.4-0.4,0.8-0.7,1.3-0.8c0.5-0.2,1-0.3,1.5-0.3s1,0.1,1.5,0.4s0.9,0.5,1.3,0.9s0.6,0.8,0.8,1.3c0.2,0.5,0.2,1,0.2,1.5
		C20.7,46.4,20.6,46.9,20.3,47.5z M19.2,47c0.2-0.3,0.2-0.7,0.3-1.1s0-0.7-0.2-1c-0.1-0.3-0.3-0.6-0.5-0.9c-0.2-0.3-0.5-0.5-0.9-0.6
		c-0.4-0.2-0.7-0.2-1.1-0.3s-0.7,0-1,0.2c-0.3,0.1-0.6,0.3-0.9,0.5c-0.3,0.2-0.5,0.5-0.6,0.9c-0.2,0.4-0.2,0.7-0.3,1s0,0.7,0.2,1
		c0.1,0.3,0.3,0.6,0.5,0.9c0.2,0.3,0.5,0.5,0.9,0.6c0.3,0.2,0.7,0.2,1.1,0.3c0.4,0,0.7,0,1-0.2c0.3-0.1,0.6-0.3,0.9-0.5
		C18.8,47.6,19,47.3,19.2,47z"/>
	<path class="st1" d="M23.6,41.3c-0.3,0.4-0.6,0.8-0.9,1.1s-0.7,0.5-1,0.7l-0.6-1c0.3-0.1,0.6-0.3,0.8-0.6c0.3-0.2,0.5-0.5,0.7-0.8
		c0.2-0.4,0.3-0.7,0.3-0.9c0-0.2-0.1-0.4-0.2-0.5c-0.1-0.1-0.3-0.1-0.4,0c-0.1,0.1-0.3,0.2-0.4,0.3c-0.1,0.2-0.3,0.3-0.5,0.5
		c-0.2,0.2-0.3,0.4-0.5,0.6c-0.2,0.2-0.4,0.3-0.6,0.5c-0.2,0.1-0.4,0.2-0.7,0.2c-0.2,0-0.5-0.1-0.8-0.3c-0.3-0.2-0.5-0.5-0.7-0.8
		c-0.1-0.3-0.1-0.7-0.1-1.1s0.2-0.8,0.5-1.3c0.2-0.3,0.5-0.6,0.7-0.9s0.6-0.5,0.8-0.6l0.6,1c-0.3,0.1-0.5,0.3-0.7,0.5
		c-0.2,0.2-0.4,0.4-0.5,0.7c-0.2,0.4-0.3,0.6-0.3,0.9c0,0.2,0.1,0.4,0.2,0.5c0.1,0.1,0.3,0.1,0.4,0s0.3-0.2,0.4-0.3s0.3-0.3,0.5-0.5
		s0.3-0.4,0.5-0.6s0.4-0.3,0.6-0.5c0.2-0.1,0.4-0.2,0.7-0.2c0.2,0,0.5,0.1,0.8,0.3c0.3,0.2,0.5,0.4,0.6,0.8c0.1,0.3,0.1,0.7,0.1,1.1
		C24.1,40.4,23.9,40.8,23.6,41.3z"/>
	<path class="st1" d="M26.9,36.5c-0.4,0.5-0.8,0.8-1.3,0.9s-1-0.1-1.5-0.5L20,33.8l0.8-1.1l4.1,3.1c0.2,0.2,0.4,0.2,0.6,0.2
		c0.2,0,0.4-0.1,0.5-0.3c0.2-0.2,0.3-0.5,0.3-0.8l1,0.3c0,0.2,0,0.4-0.1,0.6S27,36.3,26.9,36.5z M21.3,36l-0.9-0.7l2.3-3.1l0.9,0.7
		L21.3,36z"/>
	<path class="st1" d="M30.6,32.1l-0.9-0.8l-0.2-0.1L28,29.8c-0.3-0.3-0.6-0.4-0.9-0.4s-0.7,0.2-1,0.6c-0.2,0.2-0.4,0.5-0.5,0.8
		c-0.1,0.3-0.2,0.6-0.2,0.9l-1.1-0.3c0-0.4,0.2-0.8,0.4-1.2c0.2-0.4,0.5-0.8,0.8-1.1c0.6-0.6,1.2-1,1.8-1s1.2,0.2,1.8,0.8l2.5,2.3
		L30.6,32.1z M29.4,33.5c-0.3,0.3-0.6,0.5-0.9,0.7c-0.3,0.1-0.7,0.2-1,0.1c-0.3,0-0.6-0.2-0.8-0.4c-0.2-0.2-0.4-0.5-0.5-0.8
		c-0.1-0.3-0.1-0.6,0.1-1c0.1-0.4,0.4-0.8,0.8-1.2l1.1-1.2l0.7,0.6l-1.1,1.2c-0.3,0.3-0.5,0.6-0.5,0.8c0,0.2,0.1,0.4,0.2,0.5
		c0.2,0.2,0.4,0.2,0.6,0.2c0.2,0,0.5-0.2,0.7-0.5c0.2-0.2,0.4-0.5,0.4-0.8c0.1-0.3,0-0.6-0.1-0.9l0.8,0.4c0.2,0.3,0.2,0.7,0.1,1.1
		C30,32.7,29.8,33.1,29.4,33.5z"/>
	<path class="st1" d="M34.5,28.5c-0.4,0.4-0.9,0.6-1.4,0.7c-0.5,0.1-1,0.1-1.5-0.1s-0.9-0.5-1.3-0.9s-0.6-0.9-0.7-1.4s0-1,0.1-1.5
		c0.2-0.5,0.5-0.9,0.9-1.3c0.4-0.3,0.8-0.5,1.2-0.6c0.4-0.1,0.9,0,1.3,0.2c0.5,0.2,0.9,0.5,1.3,1.1c0.4,0.5,0.7,1,0.8,1.5
		c0.1,0.5,0.1,0.9-0.1,1.3C35.1,27.9,34.9,28.2,34.5,28.5z M35.9,27.2l-0.9-1l-1-1.2L33,23.9l-2.3-2.8l1-0.9l5.2,6.2L35.9,27.2z
		 M33.9,27.6c0.2-0.2,0.4-0.5,0.5-0.7s0.1-0.6,0.1-0.9c-0.1-0.3-0.2-0.6-0.4-0.9c-0.2-0.3-0.5-0.5-0.8-0.6c-0.3-0.1-0.6-0.1-0.9-0.1
		s-0.6,0.2-0.8,0.4s-0.4,0.5-0.5,0.7s-0.1,0.6-0.1,0.9c0.1,0.3,0.2,0.6,0.4,0.9c0.2,0.3,0.5,0.5,0.8,0.6c0.3,0.1,0.6,0.1,0.9,0.1
		C33.4,27.9,33.6,27.8,33.9,27.6z"/>
	<path class="st1" d="M42.5,22.8l-6.5-5.1l2-1.1l5.6,4.4l-1.2,0.7l-0.7-7.1l1.9-1l0.8,8.2L42.5,22.8z"/>
	<path class="st1" d="M47.5,20.1L44.8,13l3.3-1.2c0.6-0.2,1.2-0.4,1.8-0.3c0.5,0,1,0.2,1.4,0.5c0.4,0.3,0.7,0.7,0.9,1.3
		c0.2,0.5,0.2,1,0.1,1.5c-0.1,0.5-0.4,0.9-0.7,1.3c-0.4,0.4-0.9,0.7-1.6,1l-2.1,0.8l0.6-1.2l1,2.7L47.5,20.1z M48.6,16.8l-1.2-0.6
		l2-0.8c0.4-0.2,0.7-0.4,0.8-0.6c0.1-0.3,0.1-0.6,0-0.9c-0.1-0.3-0.3-0.5-0.6-0.7c-0.3-0.1-0.6-0.1-1,0.1l-2,0.8l0.5-1.3L48.6,16.8z
		"/>
	<path class="st1" d="M54.8,17.4L53.2,10l1.7-0.4l5.2,4.1l-0.8,0.2l-1.1-4.9l2.1-0.4l1.6,7.4l-1.7,0.4L55,12.2l0.8-0.2l1.1,4.9
		L54.8,17.4z"/>
	<path class="st1" d="M66.9,12.7c-0.3,0-0.6-0.1-0.9-0.3c-0.2-0.2-0.4-0.5-0.4-0.9c0-0.4,0.1-0.7,0.3-0.9c0.2-0.2,0.5-0.4,0.9-0.4
		c0.3,0,0.6,0.1,0.9,0.3c0.2,0.2,0.4,0.5,0.4,0.9c0,0.4-0.1,0.7-0.3,0.9S67.2,12.7,66.9,12.7z"/>
</g>
<g>
	<path class="st2" d="M84.1,39.8l-2.8-7.2l-10.7,7.2L54.7,64.6L43.8,75.7l-2.5,7.6l5.9-0.6l6.1,2.2c1.2-6.6,4.6-19.1,14.5-31
		C73.5,47.1,79.5,42.6,84.1,39.8z"/>
	<path class="st1" d="M83.4,95.2c0.4-1,0.9-2.3,1.2-3.3c0.5-1.7,0.9-3.6,1.1-5.3c0.4-3.9-0.1-8-1.4-11.7c0,0,0-0.1-0.1-0.2
		c0.5-1.9,0.9-3.9,1.1-5.8c0.3-2.3,0.5-4.7,0.5-7c-0.8,2.2-1.8,4.2-2.9,6.2c-1.1,2-2.3,3.9-3.6,5.7l-0.5,0.7
		c0.1,0.3,0.5,1.3,0.6,1.6c1,2.8,1.5,5.8,1.3,8.8c0,0.7-0.1,1.4-0.2,2c0,0.3-0.1,0.7-0.2,0.9c-0.2,1.1-0.5,2.2-0.9,3.2
		c-0.2,0.6-0.6,1.6-1.1,2.8c-0.7-1.5-1.4-3.3-1.4-3.3s-0.4-0.9-0.4-0.9c-0.5-0.2-5.6-2.2-6.2-2.4l-1-0.4l-0.9,0.4l-4.9,2.1l-1.3,1.4
		c-0.5,1.4-1.4,2.7-2.4,3.8c-0.4,0.4-0.9,0.8-1.3,1.2c-0.4-2.1-0.2-4.2,0.5-6.2l0.4-1c0,0-0.4-0.9-0.4-0.9c-0.3-0.7-2.3-5.3-2.6-5.8
		c0,0-1-0.4-1-0.4c-0.6-0.2-5.7-2.2-6.2-2.4c-0.1,0-2.1,0.9-4.2,1.8c0-0.1,0.2-0.6,0.2-0.6c0.2-0.6,0.7-1.8,1-2.4
		c0.4-0.8,0.8-1.7,1.3-2.5c1.1-1.9,2.6-3.7,4.3-5.1c0.9-0.8,1.9-1.6,3-2.2c0.2-0.1,0.5-0.3,0.6-0.4c0.4-0.2,0.9-0.5,1.3-0.7l0.5-0.3
		c0.2-0.2,0.5-0.6,0.6-0.7c1.1-3.5,2.5-7,4.3-10.2c3.4-6.2,8.2-11.6,13.8-16c2-1.7,4.2-3.2,6.4-4.6c0.6,1.5,1.1,2.9,1.6,4.4
		c1.3,4.2,2.3,8.5,2.8,13c0.7-5.4,0.6-10.9,0-16.3c-0.2-1.8-0.5-3.7-0.8-5.5c0,0-0.8-3-0.8-3c-2.5,1.5-5.3,3-7.6,4.7
		c-3.1,2.2-6.1,4.6-8.9,7.2c-6.8,6.4-12,14.5-14.9,23.3c-0.2,0.1-0.5,0.3-0.7,0.4c-3.7,2.1-6.8,5.2-9.2,8.7c-0.8,1.3-1.5,2.6-2.2,4
		c-0.7,1.7-2.7,6.8-3.4,8.6l-2.2,5.6l5.5-2.4c0,0,6.3-2.8,7.8-3.4c1,0.4,2.3,0.9,3.3,1.3l1.3,3c-0.9,2.8-1,5.8-0.3,8.6
		c0.2,1,0.6,2,1,3c0,0,1,2.4,1,2.4c1.3-0.6,3.2-1.4,4.4-2.2c1.2-0.7,2.2-1.5,3.2-2.5c1.3-1.3,2.3-2.8,3.1-4.5l3-1.3l3.3,1.3
		c0.7,1.5,3.4,7.8,3.4,7.8s2.4,5.5,2.4,5.5C79.9,104.1,82.2,98.1,83.4,95.2z"/>
</g>
</svg>
